<svg id="visual" viewBox="0 0 900 600" width="900" height="600" xmlns="http://www.w3.org/2000/svg" xmlns:xlink="http://www.w3.org/1999/xlink" version="1.1"><rect x="0" y="0" width="900" height="600" fill="#0B38BF"></rect><defs><linearGradient id="grad1_0" x1="33.3%" y1="100%" x2="100%" y2="0%"><stop offset="20%" stop-color="#0066ff" stop-opacity="1"></stop><stop offset="80%" stop-color="#0066ff" stop-opacity="1"></stop></linearGradient></defs><defs><linearGradient id="grad1_1" x1="33.3%" y1="100%" x2="100%" y2="0%"><stop offset="20%" stop-color="#0066ff" stop-opacity="1"></stop><stop offset="80%" stop-color="#0956e9" stop-opacity="1"></stop></linearGradient></defs><defs><linearGradient id="grad1_2" x1="33.3%" y1="100%" x2="100%" y2="0%"><stop offset="20%" stop-color="#0c47d4" stop-opacity="1"></stop><stop offset="80%" stop-color="#0956e9" stop-opacity="1"></stop></linearGradient></defs><defs><linearGradient id="grad1_3" x1="33.3%" y1="100%" x2="100%" y2="0%"><stop offset="20%" stop-color="#0c47d4" stop-opacity="1"></stop><stop offset="80%" stop-color="#0b38bf" stop-opacity="1"></stop></linearGradient></defs><defs><linearGradient id="grad2_0" x1="0%" y1="100%" x2="66.7%" y2="0%"><stop offset="20%" stop-color="#0066ff" stop-opacity="1"></stop><stop offset="80%" stop-color="#0066ff" stop-opacity="1"></stop></linearGradient></defs><defs><linearGradient id="grad2_1" x1="0%" y1="100%" x2="66.7%" y2="0%"><stop offset="20%" stop-color="#0956e9" stop-opacity="1"></stop><stop offset="80%" stop-color="#0066ff" stop-opacity="1"></stop></linearGradient></defs><defs><linearGradient id="grad2_2" x1="0%" y1="100%" x2="66.7%" y2="0%"><stop offset="20%" stop-color="#0956e9" stop-opacity="1"></stop><stop offset="80%" stop-color="#0c47d4" stop-opacity="1"></stop></linearGradient></defs><defs><linearGradient id="grad2_3" x1="0%" y1="100%" x2="66.7%" y2="0%"><stop offset="20%" stop-color="#0b38bf" stop-opacity="1"></stop><stop offset="80%" stop-color="#0c47d4" stop-opacity="1"></stop></linearGradient></defs><g transform="translate(900, 600)"><path d="M-405.6 0C-404.1 -56.7 -402.5 -113.4 -374.7 -155.2C-347 -197.1 -293.1 -224 -250.3 -250.3C-207.5 -276.6 -175.7 -302.2 -135.9 -328C-96 -353.7 -48 -379.7 0 -405.6L0 0Z" fill="#0c40c9"></path><path d="M-304.2 0C-303 -42.5 -301.9 -85 -281.1 -116.4C-260.3 -147.8 -219.9 -168 -187.7 -187.7C-155.6 -207.5 -131.8 -226.7 -101.9 -246C-72 -265.3 -36 -284.8 0 -304.2L0 0Z" fill="#0c4fdf"></path><path d="M-202.8 0C-202 -28.3 -201.2 -56.7 -187.4 -77.6C-173.5 -98.5 -146.6 -112 -125.2 -125.2C-103.7 -138.3 -87.9 -151.1 -67.9 -164C-48 -176.9 -24 -189.8 0 -202.8L0 0Z" fill="#065ef4"></path><path d="M-101.4 0C-101 -14.2 -100.6 -28.3 -93.7 -38.8C-86.8 -49.3 -73.3 -56 -62.6 -62.6C-51.9 -69.2 -43.9 -75.6 -34 -82C-24 -88.4 -12 -94.9 0 -101.4L0 0Z" fill="#0066ff"></path></g><g transform="translate(0, 0)"><path d="M405.6 0C371.2 46.2 336.8 92.4 306.7 127.1C276.6 161.7 250.8 184.8 229.8 229.8C208.8 274.8 192.7 341.8 155.2 374.7C117.7 407.7 58.9 406.7 0 405.6L0 0Z" fill="#0c40c9"></path><path d="M304.2 0C278.4 34.7 252.6 69.3 230 95.3C207.5 121.3 188.1 138.6 172.4 172.4C156.6 206.1 144.5 256.3 116.4 281.1C88.3 305.8 44.2 305 0 304.2L0 0Z" fill="#0c4fdf"></path><path d="M202.8 0C185.6 23.1 168.4 46.2 153.4 63.5C138.3 80.8 125.4 92.4 114.9 114.9C104.4 137.4 96.4 170.9 77.6 187.4C58.9 203.9 29.4 203.3 0 202.8L0 0Z" fill="#065ef4"></path><path d="M101.4 0C92.8 11.6 84.2 23.1 76.7 31.8C69.2 40.4 62.7 46.2 57.5 57.5C52.2 68.7 48.2 85.4 38.8 93.7C29.4 101.9 14.7 101.7 0 101.4L0 0Z" fill="#0066ff"></path></g></svg>