<svg id="visual" viewBox="0 0 900 600" width="900" height="600" xmlns="http://www.w3.org/2000/svg" xmlns:xlink="http://www.w3.org/1999/xlink" version="1.1"><rect x="0" y="0" width="900" height="600" fill="#f5f5f5"></rect><path d="M450 600L453 580C456 560 462 520 470.5 480C479 440 490 400 492.8 360C495.7 320 490.3 280 481.2 240C472 200 459 160 462 120C465 80 484 40 493.5 20L503 0L900 0L900 20C900 40 900 80 900 120C900 160 900 200 900 240C900 280 900 320 900 360C900 400 900 440 900 480C900 520 900 560 900 580L900 600Z" fill="#aca1f3"></path><path d="M588 600L583.8 580C579.7 560 571.3 520 563.8 480C556.3 440 549.7 400 553.2 360C556.7 320 570.3 280 575.2 240C580 200 576 160 577.2 120C578.3 80 584.7 40 587.8 20L591 0L900 0L900 20C900 40 900 80 900 120C900 160 900 200 900 240C900 280 900 320 900 360C900 400 900 440 900 480C900 520 900 560 900 580L900 600Z" fill="#988de1"></path><path d="M661 600L651 580C641 560 621 520 619.3 480C617.7 440 634.3 400 645.2 360C656 320 661 280 663.5 240C666 200 666 160 667.5 120C669 80 672 40 673.5 20L675 0L900 0L900 20C900 40 900 80 900 120C900 160 900 200 900 240C900 280 900 320 900 360C900 400 900 440 900 480C900 520 900 560 900 580L900 600Z" fill="#8579cf"></path><path d="M763 600L755.8 580C748.7 560 734.3 520 723.3 480C712.3 440 704.7 400 704.7 360C704.7 320 712.3 280 714 240C715.7 200 711.3 160 709.3 120C707.3 80 707.7 40 707.8 20L708 0L900 0L900 20C900 40 900 80 900 120C900 160 900 200 900 240C900 280 900 320 900 360C900 400 900 440 900 480C900 520 900 560 900 580L900 600Z" fill="#7266bd"></path><path d="M785 600L785.8 580C786.7 560 788.3 520 797.2 480C806 440 822 400 822 360C822 320 806 280 795.7 240C785.3 200 780.7 160 789.2 120C797.7 80 819.3 40 830.2 20L841 0L900 0L900 20C900 40 900 80 900 120C900 160 900 200 900 240C900 280 900 320 900 360C900 400 900 440 900 480C900 520 900 560 900 580L900 600Z" fill="#5f53ac"></path></svg>