<svg id="visual" viewBox="0 0 900 600" width="900" height="600" xmlns="http://www.w3.org/2000/svg" xmlns:xlink="http://www.w3.org/1999/xlink" version="1.1"><rect x="0" y="0" width="900" height="600" fill="#f5f5f5"></rect><path d="M0 300L30 306.3C60 312.7 120 325.3 180 335.2C240 345 300 352 360 354C420 356 480 353 540 354C600 355 660 360 720 352C780 344 840 323 870 312.5L900 302L900 601L870 601C840 601 780 601 720 601C660 601 600 601 540 601C480 601 420 601 360 601C300 601 240 601 180 601C120 601 60 601 30 601L0 601Z" fill="#9787fd"></path><path d="M0 366L30 370.5C60 375 120 384 180 395.3C240 406.7 300 420.3 360 421.7C420 423 480 412 540 406.7C600 401.3 660 401.7 720 398.7C780 395.7 840 389.3 870 386.2L900 383L900 601L870 601C840 601 780 601 720 601C660 601 600 601 540 601C480 601 420 601 360 601C300 601 240 601 180 601C120 601 60 601 30 601L0 601Z" fill="#8475e5"></path><path d="M0 479L30 476.2C60 473.3 120 467.7 180 462C240 456.3 300 450.7 360 450.7C420 450.7 480 456.3 540 461C600 465.7 660 469.3 720 473.2C780 477 840 481 870 483L900 485L900 601L870 601C840 601 780 601 720 601C660 601 600 601 540 601C480 601 420 601 360 601C300 601 240 601 180 601C120 601 60 601 30 601L0 601Z" fill="#7264cd"></path><path d="M0 561L30 558.5C60 556 120 551 180 541.8C240 532.7 300 519.3 360 521.7C420 524 480 542 540 546.5C600 551 660 542 720 538.2C780 534.3 840 535.7 870 536.3L900 537L900 601L870 601C840 601 780 601 720 601C660 601 600 601 540 601C480 601 420 601 360 601C300 601 240 601 180 601C120 601 60 601 30 601L0 601Z" fill="#6053b6"></path></svg>